<svg width="806" height="770" viewBox="0 0 806 770" fill="none" xmlns="http://www.w3.org/2000/svg">
<ellipse cx="215.098" cy="279.085" rx="177.098" ry="172.595" fill="#AB9EA9"/>
<ellipse cx="134.952" cy="256.408" rx="24.5611" ry="23.9365" fill="white"/>
<ellipse cx="124.342" cy="262.079" rx="10.3415" ry="10.0785" fill="black"/>
<ellipse cx="225.44" cy="241.291" rx="24.5611" ry="23.9365" fill="white"/>
<ellipse cx="214.342" cy="246.079" rx="10.3415" ry="10.0785" fill="black"/>
<path fill-rule="evenodd" clip-rule="evenodd" d="M271.163 442.081C341.048 418.978 391.339 354.51 391.339 278.595C391.339 183.273 312.049 106 214.241 106C174.195 106 137.254 118.953 107.588 140.795C125.453 134.889 144.598 131.687 164.51 131.687C262.319 131.687 341.609 208.96 341.609 304.281C341.609 360.576 313.954 410.575 271.163 442.081Z" fill="#010201" fill-opacity="0.05"/>
<line y1="-5" x2="71.1889" y2="-5" transform="matrix(0.979888 -0.199546 0.209643 0.977778 159.112 340.052)" stroke="black" stroke-width="10"/>
<ellipse cx="227.828" cy="320.773" rx="5.20576" ry="5.07338" fill="black"/>
<ellipse cx="227.828" cy="320.773" rx="5.20576" ry="5.07338" fill="black"/>
<ellipse cx="227.828" cy="320.773" rx="5.20576" ry="5.07338" fill="black"/>
<ellipse cx="227.828" cy="320.773" rx="5.20576" ry="5.07338" fill="black"/>
<ellipse cx="158.071" cy="334.979" rx="5.20576" ry="5.07338" fill="black"/>
<circle cx="207.091" cy="562.211" r="169.072" transform="rotate(-15 207.091 562.211)" fill="#B7CBDB"/>
<circle cx="142.377" cy="559.108" r="23.448" transform="rotate(-15 142.377 559.108)" fill="white"/>
<circle cx="140.743" cy="568.016" r="9.87284" transform="rotate(-15 140.743 568.016)" fill="black"/>
<circle cx="240.765" cy="535.301" r="23.448" transform="rotate(-15 240.765 535.301)" fill="white"/>
<path d="M238.998 617.396C235.282 603.526 219.512 595.7 203.774 599.917C188.037 604.134 178.292 618.796 182.009 632.666" stroke="black" stroke-width="10" stroke-linecap="round"/>
<path d="M244.376 538.942C245.788 544.209 242.662 549.623 237.395 551.034C232.128 552.445 226.715 549.319 225.304 544.053C223.892 538.786 227.018 533.372 232.285 531.961C237.552 530.55 242.965 533.675 244.376 538.942Z" fill="black"/>
<path fill-rule="evenodd" clip-rule="evenodd" d="M329.056 680.127C369.345 638.827 387.451 577.949 371.435 518.175C347.267 427.981 254.558 374.455 164.364 398.623C118.662 410.869 82.3747 440.712 60.8393 478.91C81.3433 457.891 107.593 441.943 138.013 433.791C228.208 409.624 320.917 463.149 345.084 553.344C357.006 597.836 350.022 642.94 329.056 680.127Z" fill="#010201" fill-opacity="0.05"/>
<circle cx="500.59" cy="570.59" r="170.59" fill="#88A7A1"/>
<circle cx="525.494" cy="565.609" r="23.6585" fill="white"/>
<circle cx="455.763" cy="545.686" r="23.6585" fill="white"/>
<circle cx="512.961" cy="563.961" r="9.96146" fill="black"/>
<circle cx="443.961" cy="543.961" r="9.96146" fill="black"/>
<path fill-rule="evenodd" clip-rule="evenodd" d="M552.335 733.37C621.129 711.386 670.943 646.933 670.943 570.845C670.943 476.631 594.567 400.255 500.353 400.255C462.789 400.255 428.061 412.396 399.879 432.968C416.268 427.731 433.734 424.904 451.861 424.904C546.075 424.904 622.451 501.279 622.451 595.494C622.451 652.144 594.837 702.345 552.335 733.37Z" fill="#010201" fill-opacity="0.05"/>
<path d="M504.497 632.302C500.797 642.468 482.486 645.136 463.598 638.261C444.71 631.387 432.398 617.573 436.098 607.407C439.798 597.241 458.109 594.573 476.997 601.448C495.885 608.322 508.197 622.136 504.497 632.302Z" fill="black"/>
<ellipse cx="469.19" cy="623.649" rx="19.45" ry="10.998" transform="rotate(20 469.19 623.649)" fill="#FA1926"/>
<circle cx="503.39" cy="285.45" r="175.015" transform="rotate(20 503.39 285.45)" fill="#BCC5A9"/>
<circle cx="462.092" cy="247.632" r="24.2721" transform="rotate(20 462.092 247.632)" fill="white"/>
<circle cx="468.582" cy="244.266" r="10.2198" transform="rotate(20 468.582 244.266)" fill="black"/>
<circle cx="551.365" cy="263.811" r="24.2721" transform="rotate(20 551.365 263.811)" fill="white"/>
<circle cx="557.942" cy="261.893" r="10.2198" transform="rotate(20 557.942 261.893)" fill="black"/>
<path fill-rule="evenodd" clip-rule="evenodd" d="M584.334 436.293C651.461 401.939 691.58 329.03 678.291 253.665C661.824 160.276 569.584 98.4795 472.267 115.639C432.937 122.574 398.798 141.343 373.164 167.412C389.217 159.197 406.816 153.186 425.598 149.874C522.915 132.714 615.156 194.511 631.623 287.9C641.435 343.547 622.129 397.855 584.334 436.293Z" fill="#010201" fill-opacity="0.05"/>
<path d="M473.901 307.952C471.407 322.093 482.393 335.851 498.438 338.68C514.483 341.509 529.511 332.339 532.004 318.197" stroke="black" stroke-width="10" stroke-linecap="round"/>
</svg>
